<svg version="1.1" id="Layer_1" xmlns="http://www.w3.org/2000/svg" xmlns:xlink="http://www.w3.org/1999/xlink" x="0px" y="0px"
	 width="100%" viewBox="0 0 61 61" enable-background="new 0 0 61 61" xml:space="preserve">
<path fill="transparent" opacity="1.000000" stroke="none" 
	d="
M36.000000,62.000000 
	C33.957684,62.000000 31.915365,62.000000 29.073490,61.678886 
	C28.273932,55.285301 28.273932,49.212822 28.273932,43.000198 
	C24.091770,43.000198 20.950001,43.127102 17.822723,42.968407 
	C13.820119,42.765289 9.829190,42.332066 5.886662,41.748207 
	C5.897769,41.333469 5.855446,41.168522 5.878144,40.538689 
	C5.899819,29.718678 5.856472,19.363552 5.876569,8.760716 
	C5.904262,8.346328 5.868511,8.179648 6.079706,7.644405 
	C23.168650,7.275841 40.010651,7.275841 57.087540,7.275841 
	C57.087540,10.415730 57.087540,13.053571 57.087540,15.648135 
	C58.881813,16.141903 60.440907,16.570953 62.000000,17.000000 
	C62.000000,17.750000 62.000000,18.500000 61.646881,19.909725 
	C59.097733,20.046377 56.915745,19.156780 54.702927,19.072020 
	C49.069389,18.856232 43.421803,18.966213 37.780338,19.010052 
	C32.540409,19.050770 31.043921,20.506701 31.013489,25.676643 
	C30.965631,33.807201 31.079050,41.939297 30.970039,50.068672 
	C30.908274,54.674801 30.137491,59.472298 36.302612,60.963444 
	C36.201740,61.308960 36.100868,61.654480 36.000000,62.000000 
z"/>
<path fill="#F71963" opacity="1.000000" stroke="none" 
	d="
M62.000000,16.536818 
	C60.440907,16.570953 58.881813,16.141903 57.087540,15.648135 
	C57.087540,13.053571 57.087540,10.415730 57.087540,7.275841 
	C40.010651,7.275841 23.168650,7.275841 6.004902,7.758456 
	C5.592728,8.518301 5.636053,8.774085 5.813126,9.008426 
	C5.856472,19.363552 5.899819,29.718678 5.807828,40.655777 
	C5.593758,41.517899 5.647338,41.771313 5.833231,41.997997 
	C9.829190,42.332066 13.820119,42.765289 17.822723,42.968407 
	C20.950001,43.127102 24.091770,43.000198 28.273932,43.000198 
	C28.273932,49.212822 28.273932,55.285301 28.636967,61.678886 
	C25.969406,62.000000 22.938814,62.000000 19.799021,61.742985 
	C15.247961,56.138863 15.664062,55.035336 22.809631,53.288761 
	C22.809631,51.690342 22.809631,50.090279 22.809631,48.506626 
	C15.415159,47.995811 8.207580,47.497906 1.000000,47.000000 
	C1.000000,32.645771 1.000000,18.291544 1.294891,3.844222 
	C2.393188,2.834086 3.196594,1.917043 4.000000,1.000000 
	C21.687561,1.000000 39.375122,1.000000 57.191662,1.236993 
	C58.880428,2.315991 60.440212,3.157995 62.000000,4.000000 
	C62.000000,8.024545 62.000000,12.049088 62.000000,16.536818 
z"/>
<path fill="#F71963" opacity="1.000000" stroke="none" 
	d="
M36.454109,62.000000 
	C36.100868,61.654480 36.201740,61.308960 36.302612,60.963444 
	C30.137491,59.472298 30.908274,54.674801 30.970039,50.068672 
	C31.079050,41.939297 30.965631,33.807201 31.013489,25.676643 
	C31.043921,20.506701 32.540409,19.050770 37.780338,19.010052 
	C43.421803,18.966213 49.069389,18.856232 54.702927,19.072020 
	C56.915745,19.156780 59.097733,20.046377 61.646881,20.284725 
	C62.000000,24.356901 62.000000,28.713800 61.557037,33.535095 
	C59.853447,33.999489 58.592815,33.999489 56.860863,33.999489 
	C56.860863,30.441051 56.860863,27.371775 56.860863,24.323177 
	C49.684155,24.323177 42.991619,24.323177 36.310349,24.323177 
	C36.310349,33.670910 36.310349,42.692612 36.310349,52.169594 
	C39.357834,52.169594 42.095852,52.169594 44.413334,52.169594 
	C45.022530,54.844162 45.512234,56.994118 45.984894,59.098160 
	C45.967850,59.052246 45.923477,58.964916 45.935974,59.413216 
	C45.965649,60.574345 45.982822,61.287174 46.000000,62.000000 
	C42.969406,62.000000 39.938812,62.000000 36.454109,62.000000 
z"/>
<path fill="transparent" opacity="1.000000" stroke="none" 
	d="
M46.001938,59.144077 
	C45.512234,56.994118 45.022530,54.844162 44.413334,52.169594 
	C42.095852,52.169594 39.357834,52.169594 36.310349,52.169594 
	C36.310349,42.692612 36.310349,33.670910 36.310349,24.323177 
	C42.991619,24.323177 49.684155,24.323177 56.860863,24.323177 
	C56.860863,27.371775 56.860863,30.441051 56.860863,33.999489 
	C58.592815,33.999489 59.853447,33.999489 61.557037,33.999744 
	C62.000000,34.444447 62.000000,34.888889 61.576302,35.649635 
	C58.434994,35.644779 55.707539,35.389999 53.001804,34.988766 
	C47.228729,34.132683 45.886497,37.208294 45.976261,42.167820 
	C46.078651,47.824871 46.001221,53.485184 46.001938,59.144077 
z"/>
<path fill="#F71963" opacity="1.000000" stroke="none" 
	d="
M45.984894,59.098160 
	C46.001221,53.485184 46.078651,47.824871 45.976261,42.167820 
	C45.886497,37.208294 47.228729,34.132683 53.001804,34.988766 
	C55.707539,35.389999 58.434994,35.644779 61.576302,35.982964 
	C62.000000,43.687576 62.000000,51.375153 61.572018,59.323601 
	C56.070515,59.377956 50.996998,59.171436 45.923477,58.964916 
	C45.923477,58.964916 45.967850,59.052246 45.984894,59.098160 
M51.000340,45.563046 
	C51.000340,48.659710 51.000340,51.756378 51.000340,54.765419 
	C53.658649,54.765419 55.603100,54.765419 57.717468,54.765419 
	C57.717468,49.465096 57.717468,44.399551 57.717468,39.339386 
	C55.377724,39.339386 53.327682,39.339386 51.000347,39.339386 
	C51.000347,41.315559 51.000347,42.962337 51.000340,45.563046 
z"/>
<path fill="transparent" opacity="1.000000" stroke="none" 
	d="
M1.000000,47.472664 
	C8.207580,47.497906 15.415159,47.995811 22.809631,48.506626 
	C22.809631,50.090279 22.809631,51.690342 22.809631,53.288761 
	C15.664062,55.035336 15.247961,56.138863 19.344910,61.742985 
	C13.082214,62.000000 7.164429,62.000000 1.000000,62.000000 
	C1.000000,57.317955 1.000000,52.631641 1.000000,47.472664 
z"/>
<path fill="transparent" opacity="1.000000" stroke="none" 
	d="
M45.935974,59.413216 
	C50.996998,59.171436 56.070515,59.377956 61.572018,59.792236 
	C61.367039,60.666668 60.755760,61.884911 60.097614,61.910778 
	C55.718136,62.082890 51.328640,62.000000 46.471199,62.000000 
	C45.982822,61.287174 45.965649,60.574345 45.935974,59.413216 
z"/>
<path fill="transparent" opacity="1.000000" stroke="none" 
	d="
M62.000000,3.500000 
	C60.440212,3.157995 58.880428,2.315991 57.660320,1.236993 
	C59.251995,1.829342 62.314812,-0.962960 62.000000,3.500000 
z"/>
<path fill="transparent" opacity="1.000000" stroke="none" 
	d="
M3.500000,1.000000 
	C3.196594,1.917043 2.393188,2.834086 1.294891,3.375565 
	C1.666667,2.333333 2.333333,1.666667 3.500000,1.000000 
z"/>
<path fill="#E51966" opacity="1.000000" stroke="none" 
	d="
M5.876570,8.760716 
	C5.636053,8.774085 5.592728,8.518301 5.757957,8.127021 
	C5.868511,8.179648 5.904262,8.346328 5.876570,8.760716 
z"/>
<path fill="#E51966" opacity="1.000000" stroke="none" 
	d="
M5.886662,41.748207 
	C5.647338,41.771313 5.593758,41.517899 5.742807,41.120667 
	C5.855446,41.168522 5.897769,41.333469 5.886662,41.748207 
z"/>
<path fill="transparent" opacity="1.000000" stroke="none" 
	d="
M51.000343,45.086082 
	C51.000347,42.962337 51.000347,41.315559 51.000347,39.339386 
	C53.327682,39.339386 55.377724,39.339386 57.717468,39.339386 
	C57.717468,44.399551 57.717468,49.465096 57.717468,54.765419 
	C55.603100,54.765419 53.658649,54.765419 51.000340,54.765419 
	C51.000340,51.756378 51.000340,48.659710 51.000343,45.086082 
z"/>
</svg>