<svg width="23" height="22" viewBox="0 0 23 22" fill="none" xmlns="http://www.w3.org/2000/svg">
<g clip-path="url(#clip0_11_234)">
<path d="M11.4877 5.35144C8.36547 5.35144 5.83777 7.87961 5.83777 10.9963C5.83777 14.1157 8.36822 16.6411 11.4877 16.6411C14.6099 16.6411 17.1376 14.1129 17.1376 10.9963C17.1376 7.87686 14.6072 5.35144 11.4877 5.35144V5.35144ZM11.4877 14.6602C9.46096 14.6602 7.82048 13.0203 7.82048 10.9963C7.82048 8.97228 9.46188 7.33236 11.4877 7.33236C13.5135 7.33236 15.1549 8.97228 15.1549 10.9963C15.1559 13.0203 13.5145 14.6602 11.4877 14.6602V14.6602Z" fill="white"/>
<path d="M16.0225 0.0709355C13.9966 -0.0234812 8.97885 -0.0188978 6.95118 0.0709355C5.1694 0.154352 3.59773 0.584269 2.33067 1.85019C0.213091 3.96585 0.483753 6.81669 0.483753 10.9976C0.483753 15.2766 0.245204 18.0614 2.33067 20.145C4.45651 22.268 7.35121 21.9903 11.4864 21.9903C15.7289 21.9903 17.1932 21.993 18.6933 21.4128C20.7329 20.6217 22.2724 18.8003 22.4229 15.5287C22.5183 13.5038 22.5128 8.49144 22.4229 6.4656C22.2413 2.60369 20.1668 0.261602 16.0225 0.0709355V0.0709355ZM19.2291 18.7453C17.8409 20.1322 15.9151 20.0084 11.4598 20.0084C6.87228 20.0084 5.0327 20.0763 3.6904 18.7315C2.14442 17.1943 2.42426 14.7257 2.42426 10.9829C2.42426 5.91835 1.90404 2.27094 6.99155 2.0106C8.16044 1.96935 8.5045 1.9556 11.4469 1.9556L11.4882 1.9831C16.3775 1.9831 20.2136 1.4716 20.4439 6.5536C20.4962 7.71319 20.5081 8.06152 20.5081 10.9967C20.5072 15.5269 20.5934 17.3758 19.2291 18.7453V18.7453Z" fill="white"/>
<path d="M17.3608 6.44786C18.0901 6.44786 18.6813 5.85729 18.6813 5.12878C18.6813 4.40027 18.0901 3.80969 17.3608 3.80969C16.6315 3.80969 16.0403 4.40027 16.0403 5.12878C16.0403 5.85729 16.6315 6.44786 17.3608 6.44786Z" fill="white"/>
</g>
<defs>
<clipPath id="clip0_11_234">
<rect width="22.0199" height="22" fill="white" transform="translate(0.473145)"/>
</clipPath>
</defs>
</svg>
